Upgrade_Try-Light.ufo
<glyph name="exclam" format="2">
  <advance width="184"/>
  <unicode hex="0021"/>
  <outline>
    <contour>
      <point x="77" y="164" type="line"/>
      <point x="107" y="164" type="line"/>
      <point x="107" y="724" type="line"/>
      <point x="77" y="724" type="line"/>
    </contour>
    <contour>
      <point x="72" y="0" type="line"/>
      <point x="112" y="0" type="line"/>
      <point x="112" y="40" type="line"/>
      <point x="72" y="40" type="line"/>
    </contour>
  </outline>
</glyph>
<glyph name="parenleft" format="2">
  <advance width="288"/>
  <unicode hex="0028"/>
  <outline>
    <contour>
      <point x="230" y="-220" type="curve"/>
      <point x="268" y="-220" type="line"/>
      <point x="162" y="-88"/>
      <point x="92" y="85"/>
      <point x="92" y="252" type="curve" smooth="yes"/>
      <point x="92" y="418"/>
      <point x="162" y="592"/>
      <point x="268" y="724" type="curve"/>
      <point x="230" y="724" type="line"/>
      <point x="128" y="596"/>
      <point x="60" y="423"/>
      <point x="60" y="252" type="curve" smooth="yes"/>
      <point x="60" y="82"/>
      <point x="128" y="-92"/>
    </contour>
  </outline>
</glyph>
<glyph name="parenright" format="2">
  <advance width="288"/>
  <unicode hex="0029"/>
  <outline>
    <contour>
      <point x="20" y="-220" type="curve"/>
      <point x="58" y="-220" type="line"/>
      <point x="160" y="-92"/>
      <point x="228" y="82"/>
      <point x="228" y="252" type="curve" smooth="yes"/>
      <point x="228" y="423"/>
      <point x="160" y="596"/>
      <point x="58" y="724" type="curve"/>
      <point x="20" y="724" type="line"/>
      <point x="126" y="592"/>
      <point x="196" y="418"/>
      <point x="196" y="252" type="curve" smooth="yes"/>
      <point x="196" y="85"/>
      <point x="126" y="-88"/>
    </contour>
  </outline>
</glyph>
<glyph name="zero" format="2">
  <advance width="554"/>
  <unicode hex="0030"/>
  <outline>
    <contour>
      <point x="277" y="-12" type="curve" smooth="yes"/>
      <point x="426" y="-12"/>
      <point x="498" y="120"/>
      <point x="498" y="329" type="curve" smooth="yes"/>
      <point x="498" y="539"/>
      <point x="426" y="670"/>
      <point x="277" y="670" type="curve" smooth="yes"/>
      <point x="128" y="670"/>
      <point x="56" y="538"/>
      <point x="56" y="327" type="curve" smooth="yes"/>
      <point x="56" y="119"/>
      <point x="128" y="-12"/>
    </contour>
    <contour>
      <point x="277" y="16" type="curve" smooth="yes"/>
      <point x="161" y="16"/>
      <point x="89" y="118"/>
      <point x="89" y="329" type="curve" smooth="yes"/>
      <point x="89" y="541"/>
      <point x="161" y="642"/>
      <point x="277" y="642" type="curve" smooth="yes"/>
      <point x="393" y="642"/>
      <point x="465" y="540"/>
      <point x="465" y="327" type="curve" smooth="yes"/>
      <point x="465" y="117"/>
      <point x="393" y="16"/>
    </contour>
  </outline>
</glyph>
<glyph name="four" format="2">
  <advance width="526"/>
  <unicode hex="0034"/>
  <outline>
    <contour>
      <point x="351" y="0" type="line"/>
      <point x="383" y="0" type="line"/>
      <point x="383" y="194" type="line"/>
      <point x="486" y="194" type="line"/>
      <point x="486" y="223" type="line"/>
      <point x="383" y="223" type="line"/>
      <point x="383" y="674" type="line"/>
      <point x="359" y="674" type="line"/>
      <point x="44" y="221" type="line"/>
      <point x="44" y="194" type="line"/>
      <point x="351" y="194" type="line"/>
    </contour>
    <contour>
      <point x="351" y="223" type="line"/>
      <point x="80" y="223" type="line"/>
      <point x="351" y="615" type="line"/>
    </contour>
  </outline>
</glyph>
<glyph name="seven" format="2">
  <advance width="463"/>
  <unicode hex="0037"/>
  <outline>
    <contour>
      <point x="145" y="0" type="line" smooth="yes"/>
      <point x="177" y="0" type="line" smooth="yes"/>
      <point x="419" y="640" type="line" smooth="yes"/>
      <point x="419" y="658" type="line" smooth="yes"/>
      <point x="44" y="658" type="line" smooth="yes"/>
      <point x="44" y="626" type="line" smooth="yes"/>
      <point x="402" y="626" type="line" smooth="yes"/>
      <point x="388" y="641" type="line" smooth="yes"/>
    </contour>
  </outline>
</glyph>
<glyph name="question" format="2">
  <advance width="436"/>
  <unicode hex="003F"/>
  <outline>
    <contour>
      <point x="179" y="164" type="curve"/>
      <point x="211" y="164" type="line"/>
      <point x="211" y="242"/>
      <point x="240" y="296"/>
      <point x="301" y="348" type="curve" smooth="yes"/>
      <point x="371" y="409"/>
      <point x="396" y="464"/>
      <point x="396" y="544" type="curve" smooth="yes"/>
      <point x="396" y="648"/>
      <point x="318" y="724"/>
      <point x="195" y="724" type="curve" smooth="yes"/>
      <point x="138" y="724"/>
      <point x="78" y="701"/>
      <point x="40" y="666" type="curve"/>
      <point x="40" y="628" type="line"/>
      <point x="74" y="670"/>
      <point x="135" y="696"/>
      <point x="195" y="696" type="curve" smooth="yes"/>
      <point x="299" y="696"/>
      <point x="364" y="632"/>
      <point x="364" y="543" type="curve" smooth="yes"/>
      <point x="364" y="469"/>
      <point x="338" y="420"/>
      <point x="281" y="369" type="curve" smooth="yes"/>
      <point x="205" y="301"/>
      <point x="179" y="239"/>
    </contour>
    <contour>
      <point x="175" y="0" type="line"/>
      <point x="215" y="0" type="line"/>
      <point x="215" y="40" type="line"/>
      <point x="175" y="40" type="line"/>
    </contour>
  </outline>
</glyph>
<glyph name="A" format="2">
  <advance width="603"/>
  <unicode hex="0041"/>
  <anchor x="301" y="642" name="top"/>
  <anchor x="577" y="16" name="ogonek"/>
  <outline>
    <contour>
      <point x="24" y="0" type="line"/>
      <point x="55" y="0" type="line"/>
      <point x="152" y="249" type="line"/>
      <point x="136" y="249" type="line"/>
      <point x="463" y="249" type="line"/>
      <point x="448" y="249" type="line"/>
      <point x="545" y="0" type="line"/>
      <point x="579" y="0" type="line"/>
      <point x="317" y="670" type="line"/>
      <point x="285" y="670" type="line"/>
    </contour>
    <contour>
      <point x="163" y="278" type="line"/>
      <point x="288" y="598" type="line"/>
      <point x="304" y="641" type="line"/>
      <point x="296" y="641" type="line"/>
      <point x="312" y="598" type="line"/>
      <point x="437" y="278" type="line"/>
      <point x="454" y="278" type="line"/>
      <point x="146" y="278" type="line"/>
    </contour>
  </outline>
</glyph>
<glyph name="B" format="2">
  <advance width="500"/>
  <unicode hex="0042"/>
  <outline>
    <contour>
      <point x="80" y="0" type="line"/>
      <point x="245" y="0" type="line" smooth="yes"/>
      <point x="387" y="0"/>
      <point x="448" y="67"/>
      <point x="448" y="174" type="curve" smooth="yes"/>
      <point x="448" y="265"/>
      <point x="400" y="344"/>
      <point x="231" y="343" type="curve"/>
      <point x="239" y="333" type="line"/>
      <point x="380" y="332"/>
      <point x="424" y="412"/>
      <point x="424" y="495" type="curve" smooth="yes"/>
      <point x="424" y="597"/>
      <point x="360" y="658"/>
      <point x="227" y="658" type="curve" smooth="yes"/>
      <point x="80" y="658" type="line"/>
    </contour>
    <contour>
      <point x="112" y="350" type="line"/>
      <point x="112" y="629" type="line"/>
      <point x="227" y="629" type="line" smooth="yes"/>
      <point x="327" y="629"/>
      <point x="391" y="589"/>
      <point x="391" y="495" type="curve" smooth="yes"/>
      <point x="391" y="398"/>
      <point x="325" y="350"/>
      <point x="223" y="350" type="curve" smooth="yes"/>
    </contour>
    <contour>
      <point x="112" y="29" type="line"/>
      <point x="112" y="321" type="line"/>
      <point x="230" y="321" type="line" smooth="yes"/>
      <point x="351" y="321"/>
      <point x="415" y="273"/>
      <point x="415" y="174" type="curve" smooth="yes"/>
      <point x="415" y="75"/>
      <point x="354" y="29"/>
      <point x="245" y="29" type="curve" smooth="yes"/>
    </contour>
  </outline>
</glyph>
<glyph name="C" format="2">
  <advance width="664"/>
  <unicode hex="0043"/>
  <anchor x="398" y="650" name="top"/>
  <anchor x="394" y="16" name="bottom"/>
  <outline>
    <contour>
      <point x="400" y="-12" type="curve" smooth="yes"/>
      <point x="478" y="-12"/>
      <point x="546" y="6"/>
      <point x="612" y="47" type="curve"/>
      <point x="612" y="84" type="line"/>
      <point x="547" y="38"/>
      <point x="480" y="17"/>
      <point x="400" y="17" type="curve" smooth="yes"/>
      <point x="215" y="17"/>
      <point x="89" y="136"/>
      <point x="89" y="328" type="curve" smooth="yes"/>
      <point x="89" y="518"/>
      <point x="209" y="641"/>
      <point x="400" y="641" type="curve" smooth="yes"/>
      <point x="480" y="641"/>
      <point x="543" y="625"/>
      <point x="605" y="586" type="curve"/>
      <point x="605" y="621" type="line"/>
      <point x="542" y="655"/>
      <point x="480" y="670"/>
      <point x="400" y="670" type="curve" smooth="yes"/>
      <point x="189" y="670"/>
      <point x="56" y="535"/>
      <point x="56" y="328" type="curve" smooth="yes"/>
      <point x="56" y="119"/>
      <point x="195" y="-12"/>
    </contour>
  </outline>
</glyph>
<glyph name="D" format="2">
  <advance width="681"/>
  <unicode hex="0044"/>
  <anchor x="255" y="642" name="top"/>
  <outline>
    <contour>
      <point x="80" y="0" type="line"/>
      <point x="251" y="0" type="line" smooth="yes"/>
      <point x="480" y="0"/>
      <point x="625" y="133"/>
      <point x="625" y="337" type="curve" smooth="yes"/>
      <point x="625" y="531"/>
      <point x="482" y="658"/>
      <point x="259" y="658" type="curve" smooth="yes"/>
      <point x="80" y="658" type="line"/>
    </contour>
    <contour>
      <point x="112" y="29" type="line"/>
      <point x="112" y="629" type="line"/>
      <point x="259" y="629" type="line" smooth="yes"/>
      <point x="464" y="629"/>
      <point x="592" y="514"/>
      <point x="592" y="337" type="curve" smooth="yes"/>
      <point x="592" y="149"/>
      <point x="461" y="29"/>
      <point x="251" y="29" type="curve" smooth="yes"/>
    </contour>
  </outline>
</glyph>
<glyph name="J" format="2">
  <advance width="193"/>
  <unicode hex="004A"/>
  <anchor x="97" y="642" name="top"/>
  <outline>
    <contour>
      <point x="-16" y="-220" type="line" smooth="yes"/>
      <point x="64" y="-220"/>
      <point x="113" y="-168"/>
      <point x="113" y="-86" type="curve" smooth="yes"/>
      <point x="113" y="658" type="line"/>
      <point x="81" y="658" type="line"/>
      <point x="81" y="-86" type="line" smooth="yes"/>
      <point x="81" y="-152"/>
      <point x="44" y="-191"/>
      <point x="-16" y="-191" type="curve" smooth="yes"/>
      <point x="-24" y="-191" type="line"/>
      <point x="-24" y="-220" type="line"/>
    </contour>
  </outline>
</glyph>
<glyph name="K" format="2">
  <advance width="525"/>
  <unicode hex="004B"/>
  <anchor x="276" y="16" name="bottom"/>
  <outline>
    <contour>
      <point x="80" y="0" type="line"/>
      <point x="112" y="0" type="line"/>
      <point x="112" y="332" type="line"/>
      <point x="102" y="332" type="line"/>
      <point x="444" y="0" type="line"/>
      <point x="489" y="1" type="line"/>
      <point x="130" y="349" type="line"/>
      <point x="131" y="327" type="line"/>
      <point x="478" y="658" type="line"/>
      <point x="435" y="658" type="line"/>
      <point x="102" y="338" type="line"/>
      <point x="112" y="338" type="line"/>
      <point x="112" y="658" type="line"/>
      <point x="80" y="658" type="line"/>
    </contour>
  </outline>
</glyph>
<glyph name="M" format="2">
  <advance width="737"/>
  <unicode hex="004D"/>
  <outline>
    <contour>
      <point x="80" y="0" type="line"/>
      <point x="109" y="0" type="line"/>
      <point x="109" y="587" type="line"/>
      <point x="109" y="649" type="line"/>
      <point x="93" y="649" type="line"/>
      <point x="124" y="587" type="line"/>
      <point x="354" y="124" type="line"/>
      <point x="380" y="124" type="line"/>
      <point x="610" y="587" type="line" smooth="yes"/>
      <point x="640" y="649" type="line"/>
      <point x="625" y="649" type="line"/>
      <point x="625" y="587" type="line"/>
      <point x="625" y="0" type="line"/>
      <point x="657" y="0" type="line"/>
      <point x="657" y="658" type="line"/>
      <point x="612" y="658" type="line"/>
      <point x="382" y="194" type="line"/>
      <point x="358" y="143" type="line"/>
      <point x="377" y="143" type="line"/>
      <point x="353" y="194" type="line"/>
      <point x="122" y="658" type="line"/>
      <point x="80" y="658" type="line"/>
    </contour>
  </outline>
</glyph>
<glyph name="N" format="2">
  <advance width="702"/>
  <unicode hex="004E"/>
  <anchor x="350" y="642" name="top"/>
  <anchor x="351" y="16" name="bottom"/>
  <outline>
    <contour>
      <point x="80" y="0" type="line"/>
      <point x="109" y="0" type="line"/>
      <point x="109" y="587" type="line"/>
      <point x="109" y="647" type="line"/>
      <point x="88" y="647" type="line"/>
      <point x="134" y="587" type="line"/>
      <point x="584" y="0" type="line"/>
      <point x="622" y="0" type="line"/>
      <point x="622" y="658" type="line"/>
      <point x="593" y="658" type="line"/>
      <point x="593" y="71" type="line"/>
      <point x="593" y="11" type="line"/>
      <point x="614" y="11" type="line"/>
      <point x="568" y="71" type="line"/>
      <point x="118" y="658" type="line"/>
      <point x="80" y="658" type="line"/>
    </contour>
  </outline>
</glyph>
<glyph name="O" format="2">
  <advance width="778"/>
  <unicode hex="004F"/>
  <anchor x="390" y="650" name="top"/>
  <outline>
    <contour>
      <point x="389" y="-14" type="curve" smooth="yes"/>
      <point x="584" y="-14"/>
      <point x="722" y="125"/>
      <point x="722" y="329" type="curve" smooth="yes"/>
      <point x="722" y="534"/>
      <point x="584" y="672"/>
      <point x="389" y="672" type="curve" smooth="yes"/>
      <point x="195" y="672"/>
      <point x="56" y="534"/>
      <point x="56" y="329" type="curve" smooth="yes"/>
      <point x="56" y="125"/>
      <point x="195" y="-14"/>
    </contour>
    <contour>
      <point x="389" y="15" type="curve" smooth="yes"/>
      <point x="215" y="15"/>
      <point x="89" y="142"/>
      <point x="89" y="329" type="curve" smooth="yes"/>
      <point x="89" y="516"/>
      <point x="215" y="643"/>
      <point x="389" y="643" type="curve" smooth="yes"/>
      <point x="564" y="643"/>
      <point x="689" y="516"/>
      <point x="689" y="329" type="curve" smooth="yes"/>
      <point x="689" y="142"/>
      <point x="564" y="15"/>
    </contour>
  </outline>
</glyph>
<glyph name="P" format="2">
  <advance width="450"/>
  <unicode hex="0050"/>
  <outline>
    <contour>
      <point x="80" y="0" type="line"/>
      <point x="112" y="0" type="line"/>
      <point x="112" y="259" type="line"/>
      <point x="177" y="259" type="line" smooth="yes"/>
      <point x="331" y="259"/>
      <point x="410" y="339"/>
      <point x="410" y="459" type="curve" smooth="yes"/>
      <point x="410" y="578"/>
      <point x="331" y="658"/>
      <point x="177" y="658" type="curve" smooth="yes"/>
      <point x="80" y="658" type="line"/>
    </contour>
    <contour>
      <point x="112" y="288" type="line"/>
      <point x="112" y="629" type="line"/>
      <point x="176" y="629" type="line" smooth="yes"/>
      <point x="297" y="629"/>
      <point x="377" y="571"/>
      <point x="377" y="459" type="curve" smooth="yes"/>
      <point x="377" y="346"/>
      <point x="297" y="288"/>
      <point x="177" y="288" type="curve" smooth="yes"/>
    </contour>
  </outline>
</glyph>
<glyph name="Q" format="2">
  <advance width="778"/>
  <unicode hex="0051"/>
  <guideline x="723" y="272" angle="90.0" identifier="D9ZbGaj5Ep"/>
  <outline>
    <contour>
      <point x="690" y="-129" type="curve"/>
      <point x="690" y="-96" type="line"/>
      <point x="589" y="-86"/>
      <point x="516" y="-49"/>
      <point x="460" y="16" type="curve"/>
      <point x="424" y="4" type="line"/>
      <point x="476" y="-63"/>
      <point x="582" y="-120"/>
    </contour>
    <component base="O"/>
  </outline>
</glyph>
<glyph name="U" format="2">
  <advance width="661"/>
  <unicode hex="0055"/>
  <anchor x="332" y="642" name="top"/>
  <outline>
    <contour>
      <point x="330" y="-12" type="curve" smooth="yes"/>
      <point x="484" y="-12"/>
      <point x="585" y="97"/>
      <point x="585" y="260" type="curve" smooth="yes"/>
      <point x="585" y="658" type="line"/>
      <point x="554" y="658" type="line"/>
      <point x="554" y="260" type="line" smooth="yes"/>
      <point x="554" y="115"/>
      <point x="466" y="19"/>
      <point x="330" y="19" type="curve" smooth="yes"/>
      <point x="197" y="19"/>
      <point x="108" y="115"/>
      <point x="108" y="260" type="curve" smooth="yes"/>
      <point x="108" y="658" type="line"/>
      <point x="76" y="658" type="line"/>
      <point x="76" y="260" type="line" smooth="yes"/>
      <point x="76" y="97"/>
      <point x="178" y="-12"/>
    </contour>
  </outline>
</glyph>
<glyph name="V" format="2">
  <advance width="600"/>
  <unicode hex="0056"/>
  <outline>
    <contour>
      <point x="283" y="0" type="line"/>
      <point x="317" y="0" type="line"/>
      <point x="580" y="658" type="line"/>
      <point x="549" y="658" type="line"/>
      <point x="315" y="71" type="line"/>
      <point x="293" y="16" type="line"/>
      <point x="310" y="16" type="line"/>
      <point x="288" y="71" type="line"/>
      <point x="54" y="658" type="line"/>
      <point x="20" y="658" type="line"/>
    </contour>
  </outline>
</glyph>
<glyph name="W" format="2">
  <advance width="912"/>
  <unicode hex="0057"/>
  <anchor x="458" y="642" name="top"/>
  <outline>
    <contour>
      <point x="229" y="0" type="line"/>
      <point x="263" y="0" type="line"/>
      <point x="448" y="588" type="line"/>
      <point x="468" y="653" type="line"/>
      <point x="445" y="653" type="line"/>
      <point x="465" y="588" type="line"/>
      <point x="650" y="0" type="line"/>
      <point x="683" y="0" type="line"/>
      <point x="892" y="658" type="line"/>
      <point x="863" y="658" type="line"/>
      <point x="676" y="71" type="line"/>
      <point x="660" y="20" type="line"/>
      <point x="677" y="20" type="line"/>
      <point x="661" y="71" type="line"/>
      <point x="474" y="658" type="line"/>
      <point x="442" y="658" type="line"/>
      <point x="255" y="71" type="line"/>
      <point x="239" y="20" type="line"/>
      <point x="256" y="20" type="line"/>
      <point x="240" y="71" type="line"/>
      <point x="53" y="658" type="line"/>
      <point x="20" y="658" type="line"/>
    </contour>
  </outline>
</glyph>
<glyph name="Z" format="2">
  <advance width="587"/>
  <unicode hex="005A"/>
  <anchor x="298" y="642" name="top"/>
  <outline>
    <contour>
      <point x="60" y="0" type="line"/>
      <point x="527" y="0" type="line"/>
      <point x="527" y="29" type="line"/>
      <point x="94" y="29" type="line"/>
      <point x="94" y="11" type="line"/>
      <point x="128" y="61" type="line"/>
      <point x="527" y="643" type="line"/>
      <point x="527" y="658" type="line"/>
      <point x="63" y="658" type="line"/>
      <point x="63" y="629" type="line"/>
      <point x="494" y="629" type="line"/>
      <point x="494" y="651" type="line"/>
      <point x="457" y="597" type="line"/>
      <point x="60" y="18" type="line"/>
    </contour>
  </outline>
</glyph>
<glyph name="bracketleft" format="2">
  <advance width="317"/>
  <unicode hex="005B"/>
  <outline>
    <contour>
      <point x="100" y="-220" type="line"/>
      <point x="277" y="-220" type="line"/>
      <point x="277" y="-192" type="line"/>
      <point x="132" y="-192" type="line"/>
      <point x="132" y="696" type="line"/>
      <point x="277" y="696" type="line"/>
      <point x="277" y="724" type="line"/>
      <point x="100" y="724" type="line"/>
    </contour>
  </outline>
</glyph>
<glyph name="bracketright" format="2">
  <advance width="317"/>
  <unicode hex="005D"/>
  <outline>
    <contour>
      <point x="40" y="-220" type="line"/>
      <point x="217" y="-220" type="line"/>
      <point x="217" y="724" type="line"/>
      <point x="40" y="724" type="line"/>
      <point x="40" y="696" type="line"/>
      <point x="185" y="696" type="line"/>
      <point x="185" y="-192" type="line"/>
      <point x="40" y="-192" type="line"/>
    </contour>
  </outline>
</glyph>
<glyph name="a" format="2">
  <advance width="433"/>
  <unicode hex="0061"/>
  <anchor x="208" y="446" name="top"/>
  <anchor x="429" y="0" name="ogonek"/>
  <outline>
    <contour>
      <point x="188" y="-10" type="curve" smooth="yes"/>
      <point x="249" y="-10"/>
      <point x="298" y="16"/>
      <point x="329" y="64" type="curve"/>
      <point x="333" y="0" type="line"/>
      <point x="361" y="0" type="line"/>
      <point x="361" y="327" type="line" smooth="yes"/>
      <point x="361" y="424"/>
      <point x="303" y="472"/>
      <point x="209" y="472" type="curve" smooth="yes"/>
      <point x="156" y="472"/>
      <point x="113" y="458"/>
      <point x="65" y="431" type="curve"/>
      <point x="65" y="394" type="line"/>
      <point x="112" y="428"/>
      <point x="154" y="442"/>
      <point x="209" y="442" type="curve" smooth="yes"/>
      <point x="284" y="442"/>
      <point x="329" y="407"/>
      <point x="329" y="327" type="curve" smooth="yes"/>
      <point x="329" y="284" type="line"/>
      <point x="217" y="272" type="line" smooth="yes"/>
      <point x="108" y="260"/>
      <point x="44" y="200"/>
      <point x="44" y="121" type="curve" smooth="yes"/>
      <point x="44" y="42"/>
      <point x="98" y="-10"/>
    </contour>
    <contour>
      <point x="188" y="18" type="curve" smooth="yes"/>
      <point x="118" y="18"/>
      <point x="76" y="59"/>
      <point x="76" y="121" type="curve" smooth="yes"/>
      <point x="76" y="187"/>
      <point x="127" y="233"/>
      <point x="221" y="243" type="curve" smooth="yes"/>
      <point x="329" y="255" type="line"/>
      <point x="329" y="109" type="line"/>
      <point x="305" y="56"/>
      <point x="254" y="18"/>
    </contour>
  </outline>
</glyph>
<glyph name="b" format="2">
  <advance width="502"/>
  <unicode hex="0062"/>
  <outline>
    <contour>
      <point x="230" y="-10" type="curve" smooth="yes"/>
      <point x="363" y="-10"/>
      <point x="450" y="84"/>
      <point x="450" y="236" type="curve" smooth="yes"/>
      <point x="450" y="382"/>
      <point x="369" y="472"/>
      <point x="246" y="472" type="curve" smooth="yes"/>
      <point x="194" y="472"/>
      <point x="141" y="451"/>
      <point x="107" y="414" type="curve"/>
      <point x="107" y="724" type="line"/>
      <point x="76" y="724" type="line"/>
      <point x="76" y="17" type="line"/>
      <point x="125" y="-1"/>
      <point x="175" y="-10"/>
    </contour>
    <contour>
      <point x="230" y="18" type="curve" smooth="yes"/>
      <point x="186" y="18"/>
      <point x="148" y="24"/>
      <point x="107" y="38" type="curve"/>
      <point x="107" y="382" type="line"/>
      <point x="147" y="425"/>
      <point x="190" y="444"/>
      <point x="246" y="444" type="curve" smooth="yes"/>
      <point x="350" y="444"/>
      <point x="418" y="365"/>
      <point x="418" y="235" type="curve" smooth="yes"/>
      <point x="418" y="101"/>
      <point x="343" y="18"/>
    </contour>
  </outline>
</glyph>
<glyph name="c" format="2">
  <advance width="470"/>
  <unicode hex="0063"/>
  <anchor x="277" y="446" name="top"/>
  <anchor x="255" y="16" name="bottom"/>
  <outline>
    <contour>
      <point x="282" y="-10" type="curve" smooth="yes"/>
      <point x="334" y="-10"/>
      <point x="380" y="4"/>
      <point x="423" y="33" type="curve"/>
      <point x="423" y="69" type="line"/>
      <point x="382" y="36"/>
      <point x="336" y="19"/>
      <point x="282" y="19" type="curve" smooth="yes"/>
      <point x="162" y="19"/>
      <point x="84" y="100"/>
      <point x="84" y="230" type="curve" smooth="yes"/>
      <point x="84" y="366"/>
      <point x="157" y="443"/>
      <point x="277" y="443" type="curve" smooth="yes"/>
      <point x="332" y="443"/>
      <point x="375" y="429"/>
      <point x="426" y="396" type="curve"/>
      <point x="426" y="432" type="line"/>
      <point x="377" y="459"/>
      <point x="329" y="472"/>
      <point x="277" y="472" type="curve" smooth="yes"/>
      <point x="139" y="472"/>
      <point x="52" y="382"/>
      <point x="52" y="229" type="curve" smooth="yes"/>
      <point x="52" y="83"/>
      <point x="144" y="-10"/>
    </contour>
  </outline>
</glyph>
<glyph name="d" format="2">
  <advance width="511"/>
  <unicode hex="0064"/>
  <anchor x="539" y="708" name="caron.vert"/>
  <outline>
    <contour>
      <point x="259" y="-10" type="curve" smooth="yes"/>
      <point x="317" y="-10"/>
      <point x="370" y="15"/>
      <point x="404" y="64" type="curve"/>
      <point x="408" y="0" type="line"/>
      <point x="435" y="0" type="line"/>
      <point x="435" y="724" type="line"/>
      <point x="404" y="724" type="line"/>
      <point x="404" y="423" type="line"/>
      <point x="361" y="455"/>
      <point x="314" y="472"/>
      <point x="261" y="472" type="curve" smooth="yes"/>
      <point x="142" y="472"/>
      <point x="52" y="391"/>
      <point x="52" y="231" type="curve" smooth="yes"/>
      <point x="52" y="69"/>
      <point x="139" y="-10"/>
    </contour>
    <contour>
      <point x="259" y="18" type="curve" smooth="yes"/>
      <point x="148" y="18"/>
      <point x="84" y="101"/>
      <point x="84" y="232" type="curve" smooth="yes"/>
      <point x="84" y="360"/>
      <point x="151" y="444"/>
      <point x="261" y="444" type="curve" smooth="yes"/>
      <point x="315" y="444"/>
      <point x="362" y="425"/>
      <point x="404" y="389" type="curve"/>
      <point x="404" y="109" type="line"/>
      <point x="378" y="54"/>
      <point x="326" y="18"/>
    </contour>
  </outline>
</glyph>
<glyph name="e" format="2">
  <advance width="508"/>
  <unicode hex="0065"/>
  <anchor x="258" y="446" name="top"/>
  <outline>
    <contour>
      <point x="276" y="-10" type="curve" smooth="yes"/>
      <point x="335" y="-10"/>
      <point x="390" y="10"/>
      <point x="446" y="51" type="curve"/>
      <point x="446" y="85" type="line"/>
      <point x="392" y="41"/>
      <point x="337" y="20"/>
      <point x="276" y="20" type="curve" smooth="yes"/>
      <point x="151" y="20"/>
      <point x="84" y="100"/>
      <point x="84" y="232" type="curve" smooth="yes"/>
      <point x="84" y="243" type="line" smooth="yes"/>
      <point x="84" y="363"/>
      <point x="156" y="444"/>
      <point x="258" y="444" type="curve" smooth="yes"/>
      <point x="362" y="444"/>
      <point x="424" y="375"/>
      <point x="424" y="261" type="curve"/>
      <point x="77" y="261" type="line"/>
      <point x="77" y="233" type="line"/>
      <point x="456" y="233" type="line"/>
      <point x="456" y="261" type="line" smooth="yes"/>
      <point x="456" y="392"/>
      <point x="381" y="472"/>
      <point x="258" y="472" type="curve" smooth="yes"/>
      <point x="134" y="472"/>
      <point x="52" y="375"/>
      <point x="52" y="232" type="curve" smooth="yes"/>
      <point x="52" y="82"/>
      <point x="130" y="-10"/>
    </contour>
  </outline>
</glyph>
<glyph name="h" format="2">
  <advance width="485"/>
  <unicode hex="0068"/>
  <anchor x="91" y="647" name="top"/>
  <outline>
    <contour>
      <point x="76" y="0" type="line"/>
      <point x="107" y="0" type="line"/>
      <point x="107" y="360" type="line"/>
      <point x="137" y="410"/>
      <point x="191" y="444"/>
      <point x="251" y="444" type="curve" smooth="yes"/>
      <point x="331" y="444"/>
      <point x="382" y="397"/>
      <point x="382" y="303" type="curve" smooth="yes"/>
      <point x="382" y="0" type="line"/>
      <point x="413" y="0" type="line"/>
      <point x="413" y="307" type="line" smooth="yes"/>
      <point x="413" y="406"/>
      <point x="359" y="472"/>
      <point x="251" y="472" type="curve" smooth="yes"/>
      <point x="195" y="472"/>
      <point x="140" y="443"/>
      <point x="107" y="398" type="curve"/>
      <point x="107" y="724" type="line"/>
      <point x="76" y="724" type="line"/>
    </contour>
  </outline>
</glyph>
<glyph name="i" format="2">
  <advance width="190"/>
  <unicode hex="0069"/>
  <anchor x="95" y="446" name="top"/>
  <anchor x="110" y="16" name="ogonek"/>
  <outline>
    <contour>
      <point x="80" y="0" type="line"/>
      <point x="111" y="0" type="line"/>
      <point x="111" y="462" type="line"/>
      <point x="80" y="462" type="line"/>
    </contour>
    <contour>
      <point x="76" y="636" type="line"/>
      <point x="114" y="636" type="line"/>
      <point x="114" y="674" type="line"/>
      <point x="76" y="674" type="line"/>
    </contour>
  </outline>
</glyph>
<glyph name="j" format="2">
  <advance width="183"/>
  <unicode hex="006A"/>
  <anchor x="98" y="446" name="top"/>
  <outline>
    <contour>
      <point x="-24" y="-220" type="line" smooth="yes"/>
      <point x="56" y="-220"/>
      <point x="108" y="-162"/>
      <point x="108" y="-70" type="curve" smooth="yes"/>
      <point x="108" y="462" type="line"/>
      <point x="77" y="462" type="line"/>
      <point x="77" y="-70" type="line" smooth="yes"/>
      <point x="77" y="-143"/>
      <point x="38" y="-191"/>
      <point x="-24" y="-191" type="curve" smooth="yes"/>
      <point x="-32" y="-191" type="line"/>
      <point x="-32" y="-220" type="line"/>
    </contour>
    <contour>
      <point x="73" y="636" type="line"/>
      <point x="111" y="636" type="line"/>
      <point x="111" y="674" type="line"/>
      <point x="73" y="674" type="line"/>
    </contour>
  </outline>
</glyph>
<glyph name="k" format="2">
  <advance width="433"/>
  <unicode hex="006B"/>
  <anchor x="230" y="16" name="bottom"/>
  <outline>
    <contour>
      <point x="76" y="0" type="line"/>
      <point x="107" y="0" type="line"/>
      <point x="107" y="237" type="line"/>
      <point x="97" y="237" type="line"/>
      <point x="361" y="0" type="line"/>
      <point x="407" y="0" type="line"/>
      <point x="126" y="253" type="line"/>
      <point x="126" y="231" type="line"/>
      <point x="378" y="462" type="line"/>
      <point x="337" y="462" type="line"/>
      <point x="97" y="243" type="line"/>
      <point x="107" y="243" type="line"/>
      <point x="107" y="724" type="line"/>
      <point x="76" y="724" type="line"/>
    </contour>
  </outline>
</glyph>
<glyph name="n" format="2">
  <advance width="485"/>
  <unicode hex="006E"/>
  <anchor x="245" y="446" name="top"/>
  <anchor x="243" y="16" name="bottom"/>
  <outline>
    <contour>
      <point x="76" y="0" type="line"/>
      <point x="107" y="0" type="line"/>
      <point x="107" y="360" type="line"/>
      <point x="137" y="410"/>
      <point x="191" y="444"/>
      <point x="251" y="444" type="curve" smooth="yes"/>
      <point x="331" y="444"/>
      <point x="382" y="397"/>
      <point x="382" y="303" type="curve" smooth="yes"/>
      <point x="382" y="0" type="line"/>
      <point x="413" y="0" type="line"/>
      <point x="413" y="307" type="line" smooth="yes"/>
      <point x="413" y="406"/>
      <point x="359" y="472"/>
      <point x="251" y="472" type="curve" smooth="yes"/>
      <point x="195" y="472"/>
      <point x="140" y="443"/>
      <point x="107" y="398" type="curve"/>
      <point x="107" y="462" type="line"/>
      <point x="76" y="462" type="line"/>
    </contour>
  </outline>
</glyph>
<glyph name="o" format="2">
  <advance width="563"/>
  <unicode hex="006F"/>
  <anchor x="282" y="446" name="top"/>
  <outline>
    <contour>
      <point x="282" y="-10" type="curve" smooth="yes"/>
      <point x="419" y="-10"/>
      <point x="511" y="86"/>
      <point x="511" y="231" type="curve" smooth="yes"/>
      <point x="511" y="376"/>
      <point x="419" y="472"/>
      <point x="282" y="472" type="curve" smooth="yes"/>
      <point x="144" y="472"/>
      <point x="52" y="375"/>
      <point x="52" y="230" type="curve" smooth="yes"/>
      <point x="52" y="86"/>
      <point x="144" y="-10"/>
    </contour>
    <contour>
      <point x="282" y="18" type="curve" smooth="yes"/>
      <point x="163" y="18"/>
      <point x="84" y="103"/>
      <point x="84" y="231" type="curve" smooth="yes"/>
      <point x="84" y="359"/>
      <point x="163" y="444"/>
      <point x="282" y="444" type="curve" smooth="yes"/>
      <point x="400" y="444"/>
      <point x="479" y="358"/>
      <point x="479" y="230" type="curve" smooth="yes"/>
      <point x="479" y="103"/>
      <point x="400" y="18"/>
    </contour>
  </outline>
</glyph>
<glyph name="p" format="2">
  <advance width="503"/>
  <unicode hex="0070"/>
  <outline>
    <contour>
      <point x="76" y="-220" type="line"/>
      <point x="107" y="-220" type="line"/>
      <point x="107" y="32" type="line"/>
      <point x="144" y="5"/>
      <point x="188" y="-10"/>
      <point x="239" y="-10" type="curve" smooth="yes"/>
      <point x="361" y="-10"/>
      <point x="451" y="84"/>
      <point x="451" y="236" type="curve" smooth="yes"/>
      <point x="451" y="382"/>
      <point x="369" y="472"/>
      <point x="246" y="472" type="curve" smooth="yes"/>
      <point x="192" y="472"/>
      <point x="135" y="445"/>
      <point x="107" y="404" type="curve"/>
      <point x="107" y="462" type="line"/>
      <point x="76" y="462" type="line"/>
    </contour>
    <contour>
      <point x="239" y="18" type="curve" smooth="yes"/>
      <point x="187" y="18"/>
      <point x="145" y="33"/>
      <point x="107" y="63" type="curve"/>
      <point x="107" y="368" type="line"/>
      <point x="134" y="415"/>
      <point x="192" y="444"/>
      <point x="246" y="444" type="curve" smooth="yes"/>
      <point x="350" y="444"/>
      <point x="419" y="365"/>
      <point x="419" y="235" type="curve" smooth="yes"/>
      <point x="419" y="101"/>
      <point x="342" y="18"/>
    </contour>
  </outline>
</glyph>
<glyph name="r" format="2">
  <advance width="295"/>
  <unicode hex="0072"/>
  <anchor x="177" y="446" name="top"/>
  <anchor x="92" y="16" name="bottom"/>
  <outline>
    <contour>
      <point x="76" y="0" type="line"/>
      <point x="107" y="0" type="line"/>
      <point x="107" y="354" type="line"/>
      <point x="123" y="403"/>
      <point x="163" y="439"/>
      <point x="216" y="439" type="curve" smooth="yes"/>
      <point x="240" y="439"/>
      <point x="262" y="433"/>
      <point x="283" y="423" type="curve"/>
      <point x="283" y="461" type="line"/>
      <point x="262" y="469"/>
      <point x="241" y="472"/>
      <point x="218" y="472" type="curve" smooth="yes"/>
      <point x="172" y="472"/>
      <point x="123" y="442"/>
      <point x="107" y="396" type="curve"/>
      <point x="107" y="462" type="line"/>
      <point x="76" y="462" type="line"/>
    </contour>
  </outline>
</glyph>
<glyph name="u" format="2">
  <advance width="486"/>
  <unicode hex="0075"/>
  <anchor x="243" y="446" name="top"/>
  <anchor x="409" y="16" name="ogonek"/>
  <outline>
    <contour>
      <point x="236" y="-10" type="curve" smooth="yes"/>
      <point x="300" y="-10"/>
      <point x="348" y="16"/>
      <point x="379" y="64" type="curve"/>
      <point x="383" y="0" type="line"/>
      <point x="410" y="0" type="line"/>
      <point x="410" y="462" type="line"/>
      <point x="379" y="462" type="line"/>
      <point x="379" y="109" type="line"/>
      <point x="355" y="56"/>
      <point x="305" y="18"/>
      <point x="236" y="18" type="curve" smooth="yes"/>
      <point x="156" y="18"/>
      <point x="107" y="67"/>
      <point x="107" y="159" type="curve" smooth="yes"/>
      <point x="107" y="462" type="line"/>
      <point x="76" y="462" type="line"/>
      <point x="76" y="159" type="line" smooth="yes"/>
      <point x="76" y="60"/>
      <point x="128" y="-10"/>
    </contour>
  </outline>
</glyph>
<glyph name="w" format="2">
  <advance width="711"/>
  <unicode hex="0077"/>
  <anchor x="358" y="446" name="top"/>
  <outline>
    <contour>
      <point x="182" y="0" type="line"/>
      <point x="210" y="0" type="line"/>
      <point x="347" y="391" type="line"/>
      <point x="364" y="441" type="line"/>
      <point x="348" y="441" type="line"/>
      <point x="365" y="391" type="line"/>
      <point x="500" y="0" type="line"/>
      <point x="529" y="0" type="line"/>
      <point x="689" y="462" type="line"/>
      <point x="659" y="462" type="line"/>
      <point x="524" y="71" type="line"/>
      <point x="507" y="21" type="line"/>
      <point x="525" y="21" type="line"/>
      <point x="508" y="71" type="line"/>
      <point x="373" y="462" type="line"/>
      <point x="341" y="462" type="line"/>
      <point x="206" y="71" type="line"/>
      <point x="189" y="21" type="line"/>
      <point x="207" y="21" type="line"/>
      <point x="190" y="71" type="line"/>
      <point x="55" y="462" type="line"/>
      <point x="22" y="462" type="line"/>
    </contour>
  </outline>
</glyph>
<glyph name="x" format="2">
  <advance width="426"/>
  <unicode hex="0078"/>
  <outline>
    <contour>
      <point x="26" y="0" type="line"/>
      <point x="60" y="0" type="line"/>
      <point x="188" y="184" type="line"/>
      <point x="217" y="224" type="line"/>
      <point x="225" y="234" type="line"/>
      <point x="384" y="462" type="line"/>
      <point x="346" y="462" type="line"/>
      <point x="237" y="301" type="line"/>
      <point x="207" y="259" type="line"/>
      <point x="199" y="247" type="line"/>
    </contour>
    <contour>
      <point x="362" y="0" type="line"/>
      <point x="400" y="0" type="line"/>
      <point x="225" y="247" type="line"/>
      <point x="216" y="259" type="line"/>
      <point x="186" y="301" type="line"/>
      <point x="77" y="462" type="line"/>
      <point x="38" y="462" type="line"/>
      <point x="197" y="234" type="line"/>
      <point x="205" y="224" type="line"/>
      <point x="234" y="184" type="line"/>
    </contour>
  </outline>
</glyph>
<glyph name="y" format="2">
  <advance width="443"/>
  <unicode hex="0079"/>
  <anchor x="221" y="446" name="top"/>
  <outline>
    <contour>
      <point x="-2" y="-220" type="line" smooth="yes"/>
      <point x="90" y="-220"/>
      <point x="164" y="-166"/>
      <point x="232" y="-1" type="curve" smooth="yes"/>
      <point x="421" y="462" type="line"/>
      <point x="390" y="462" type="line"/>
      <point x="231" y="71" type="line"/>
      <point x="211" y="20" type="line"/>
      <point x="230" y="20" type="line"/>
      <point x="210" y="71" type="line"/>
      <point x="51" y="462" type="line"/>
      <point x="18" y="462" type="line"/>
      <point x="198" y="20" type="line"/>
      <point x="214" y="-18" type="line"/>
      <point x="209" y="13" type="line"/>
      <point x="140" y="-144"/>
      <point x="79" y="-191"/>
      <point x="-2" y="-191" type="curve" smooth="yes"/>
      <point x="-10" y="-191" type="line"/>
      <point x="-10" y="-220" type="line"/>
    </contour>
  </outline>
</glyph>
<glyph name="z" format="2">
  <advance width="420"/>
  <unicode hex="007A"/>
  <anchor x="207" y="446" name="top"/>
  <outline>
    <contour>
      <point x="44" y="0" type="line"/>
      <point x="376" y="0" type="line"/>
      <point x="376" y="29" type="line"/>
      <point x="75" y="29" type="line"/>
      <point x="75" y="10" type="line"/>
      <point x="104" y="52" type="line"/>
      <point x="371" y="443" type="line"/>
      <point x="371" y="462" type="line"/>
      <point x="48" y="462" type="line"/>
      <point x="48" y="433" type="line"/>
      <point x="340" y="433" type="line"/>
      <point x="340" y="452" type="line"/>
      <point x="311" y="410" type="line"/>
      <point x="44" y="19" type="line"/>
    </contour>
  </outline>
</glyph>
<glyph name="quoteleft" format="2">
  <advance width="163"/>
  <unicode hex="2018"/>
  <outline>
    <contour>
      <point x="52" y="556" type="line"/>
      <point x="85" y="556" type="line"/>
      <point x="85" y="612" type="line" smooth="yes"/>
      <point x="85" y="649"/>
      <point x="93" y="681"/>
      <point x="119" y="718" type="curve"/>
      <point x="96" y="734" type="line"/>
      <point x="62" y="692"/>
      <point x="52" y="652"/>
      <point x="52" y="612" type="curve" smooth="yes"/>
    </contour>
  </outline>
</glyph>
<glyph name="quotesinglbase" format="2">
  <advance width="161"/>
  <unicode hex="201A"/>
  <outline>
    <contour>
      <point x="109" y="61" type="line"/>
      <point x="78" y="61" type="line"/>
      <point x="78" y="5" type="line" smooth="yes"/>
      <point x="78" y="-32"/>
      <point x="70" y="-64"/>
      <point x="44" y="-101" type="curve"/>
      <point x="65" y="-118" type="line"/>
      <point x="99" y="-76"/>
      <point x="109" y="-35"/>
      <point x="109" y="5" type="curve" smooth="yes"/>
    </contour>
  </outline>
</glyph>
<glyph name="quotedblleft" format="2">
  <advance width="264"/>
  <unicode hex="201C"/>
  <outline>
    <contour>
      <point x="44" y="560" type="line"/>
      <point x="77" y="560" type="line"/>
      <point x="77" y="613" type="line" smooth="yes"/>
      <point x="77" y="650"/>
      <point x="85" y="682"/>
      <point x="111" y="719" type="curve"/>
      <point x="88" y="735" type="line"/>
      <point x="54" y="693"/>
      <point x="44" y="653"/>
      <point x="44" y="613" type="curve" smooth="yes"/>
    </contour>
    <contour>
      <point x="145" y="560" type="line"/>
      <point x="178" y="560" type="line"/>
      <point x="178" y="613" type="line" smooth="yes"/>
      <point x="178" y="650"/>
      <point x="186" y="682"/>
      <point x="212" y="719" type="curve"/>
      <point x="189" y="735" type="line"/>
      <point x="155" y="693"/>
      <point x="145" y="653"/>
      <point x="145" y="613" type="curve" smooth="yes"/>
    </contour>
  </outline>
</glyph>
<glyph name="quotedblright" format="2">
  <advance width="260"/>
  <unicode hex="201D"/>
  <outline>
    <contour>
      <point x="65" y="545" type="line"/>
      <point x="99" y="587"/>
      <point x="109" y="628"/>
      <point x="109" y="668" type="curve" smooth="yes"/>
      <point x="109" y="724" type="line"/>
      <point x="78" y="724" type="line"/>
      <point x="78" y="668" type="line" smooth="yes"/>
      <point x="78" y="631"/>
      <point x="70" y="599"/>
      <point x="44" y="562" type="curve"/>
    </contour>
    <contour>
      <point x="164" y="545" type="line"/>
      <point x="198" y="587"/>
      <point x="208" y="628"/>
      <point x="208" y="668" type="curve" smooth="yes"/>
      <point x="208" y="724" type="line"/>
      <point x="177" y="724" type="line"/>
      <point x="177" y="668" type="line" smooth="yes"/>
      <point x="177" y="631"/>
      <point x="169" y="599"/>
      <point x="143" y="562" type="curve"/>
    </contour>
  </outline>
</glyph>
<glyph name="Omega" format="2">
  <advance width="686"/>
  <unicode hex="A7B6"/>
  <unicode hex="2126"/>
  <outline>
    <contour>
      <point x="63" y="0" type="line"/>
      <point x="302" y="0" type="line"/>
      <point x="302" y="91" type="line"/>
      <point x="161" y="112"/>
      <point x="73" y="229"/>
      <point x="73" y="359" type="curve" smooth="yes"/>
      <point x="73" y="523"/>
      <point x="177" y="641"/>
      <point x="343" y="641" type="curve" smooth="yes"/>
      <point x="510" y="641"/>
      <point x="613" y="522"/>
      <point x="613" y="358" type="curve" smooth="yes"/>
      <point x="613" y="227"/>
      <point x="520" y="111"/>
      <point x="371" y="91" type="curve"/>
      <point x="371" y="0" type="line"/>
      <point x="610" y="0" type="line"/>
      <point x="610" y="32" type="line"/>
      <point x="381" y="32" type="line"/>
      <point x="400" y="24" type="line"/>
      <point x="400" y="73" type="line"/>
      <point x="381" y="64" type="line"/>
      <point x="527" y="81"/>
      <point x="646" y="194"/>
      <point x="646" y="359" type="curve" smooth="yes"/>
      <point x="646" y="558"/>
      <point x="511" y="671"/>
      <point x="343" y="671" type="curve" smooth="yes"/>
      <point x="176" y="671"/>
      <point x="40" y="558"/>
      <point x="40" y="357" type="curve" smooth="yes"/>
      <point x="40" y="194"/>
      <point x="153" y="81"/>
      <point x="292" y="64" type="curve"/>
      <point x="273" y="73" type="line"/>
      <point x="273" y="24" type="line"/>
      <point x="292" y="32" type="line"/>
      <point x="63" y="32" type="line"/>
    </contour>
  </outline>
</glyph>
<glyph name="braceleft.uc" format="2">
  <advance width="415"/>
  <outline>
    <contour>
      <point x="344" y="-64" type="curve" smooth="yes"/>
      <point x="375" y="-64" type="line"/>
      <point x="375" y="-36" type="line"/>
      <point x="343" y="-36" type="line" smooth="yes"/>
      <point x="260" y="-36"/>
      <point x="203" y="14"/>
      <point x="212" y="105" type="curve" smooth="yes"/>
      <point x="220" y="183" type="line" smooth="yes"/>
      <point x="226" y="241"/>
      <point x="185" y="304"/>
      <point x="107" y="329" type="curve"/>
      <point x="107" y="330" type="line"/>
      <point x="185" y="350"/>
      <point x="226" y="414"/>
      <point x="220" y="476" type="curve" smooth="yes"/>
      <point x="212" y="554" type="line" smooth="yes"/>
      <point x="204" y="636"/>
      <point x="262" y="696"/>
      <point x="343" y="696" type="curve" smooth="yes"/>
      <point x="375" y="696" type="line"/>
      <point x="375" y="724" type="line"/>
      <point x="344" y="724" type="line" smooth="yes"/>
      <point x="230" y="724"/>
      <point x="171" y="643"/>
      <point x="180" y="554" type="curve" smooth="yes"/>
      <point x="188" y="476" type="line" smooth="yes"/>
      <point x="195" y="410"/>
      <point x="138" y="359"/>
      <point x="60" y="347" type="curve"/>
      <point x="60" y="312" type="line"/>
      <point x="138" y="300"/>
      <point x="195" y="249"/>
      <point x="188" y="183" type="curve" smooth="yes"/>
      <point x="180" y="105" type="line" smooth="yes"/>
      <point x="170" y="7"/>
      <point x="229" y="-64"/>
    </contour>
  </outline>
</glyph>
<glyph name="f.salt_noconnect" format="2">
  <advance width="239"/>
  <outline>
    <contour>
      <point x="101" y="0" type="line"/>
      <point x="132" y="0" type="line"/>
      <point x="132" y="433" type="line"/>
      <point x="219" y="433" type="line"/>
      <point x="219" y="462" type="line"/>
      <point x="132" y="462" type="line"/>
      <point x="132" y="646" type="line" smooth="yes"/>
      <point x="132" y="685"/>
      <point x="149" y="704"/>
      <point x="177" y="704" type="curve" smooth="yes"/>
      <point x="195" y="704"/>
      <point x="208" y="700"/>
      <point x="227" y="693" type="curve"/>
      <point x="227" y="726" type="line"/>
      <point x="209" y="731"/>
      <point x="197" y="734"/>
      <point x="177" y="734" type="curve" smooth="yes"/>
      <point x="126" y="734"/>
      <point x="101" y="700"/>
      <point x="101" y="646" type="curve" smooth="yes"/>
      <point x="101" y="462" type="line"/>
      <point x="20" y="462" type="line"/>
      <point x="20" y="433" type="line"/>
      <point x="101" y="433" type="line"/>
    </contour>
  </outline>
</glyph>
<glyph name="five.lc" format="2">
  <advance width="490"/>
  <outline>
    <contour>
      <point x="232" y="-200" type="curve" smooth="yes"/>
      <point x="356" y="-200"/>
      <point x="438" y="-116"/>
      <point x="438" y="2" type="curve" smooth="yes"/>
      <point x="438" y="126"/>
      <point x="353" y="199"/>
      <point x="216" y="199" type="curve" smooth="yes"/>
      <point x="180" y="199"/>
      <point x="146" y="197"/>
      <point x="106" y="191" type="curve"/>
      <point x="109" y="185" type="line"/>
      <point x="133" y="438" type="line"/>
      <point x="417" y="438" type="line"/>
      <point x="417" y="470" type="line"/>
      <point x="107" y="470" type="line"/>
      <point x="79" y="157" type="line"/>
      <point x="133" y="164"/>
      <point x="173" y="167"/>
      <point x="216" y="167" type="curve" smooth="yes"/>
      <point x="332" y="167"/>
      <point x="405" y="106"/>
      <point x="405" y="0" type="curve" smooth="yes"/>
      <point x="405" y="-111"/>
      <point x="325" y="-170"/>
      <point x="232" y="-170" type="curve" smooth="yes"/>
      <point x="156" y="-170"/>
      <point x="99" y="-140"/>
      <point x="52" y="-83" type="curve"/>
      <point x="52" y="-125" type="line"/>
      <point x="102" y="-176"/>
      <point x="160" y="-200"/>
    </contour>
  </outline>
</glyph>
<glyph name="one.lc" format="2">
  <advance width="365"/>
  <outline>
    <contour>
      <point x="57" y="0" type="line"/>
      <point x="321" y="0" type="line"/>
      <point x="321" y="28" type="line"/>
      <point x="205" y="28" type="line"/>
      <point x="205" y="490" type="line"/>
      <point x="44" y="450" type="line"/>
      <point x="44" y="420" type="line"/>
      <point x="173" y="451" type="line"/>
      <point x="173" y="28" type="line"/>
      <point x="57" y="28" type="line"/>
    </contour>
  </outline>
</glyph>
<glyph name="parenleft.uc" format="2">
  <advance width="271"/>
  <outline>
    <contour>
      <point x="213" y="-64" type="curve"/>
      <point x="251" y="-64" type="line"/>
      <point x="165" y="22"/>
      <point x="93" y="183"/>
      <point x="93" y="330" type="curve" smooth="yes"/>
      <point x="93" y="480"/>
      <point x="165" y="641"/>
      <point x="251" y="724" type="curve"/>
      <point x="213" y="724" type="line"/>
      <point x="119" y="632"/>
      <point x="60" y="464"/>
      <point x="60" y="330" type="curve" smooth="yes"/>
      <point x="60" y="198"/>
      <point x="119" y="31"/>
    </contour>
  </outline>
</glyph>
<glyph name="parenright.uc" format="2">
  <advance width="271"/>
  <outline>
    <contour>
      <point x="58" y="-64" type="line"/>
      <point x="152" y="32"/>
      <point x="211" y="200"/>
      <point x="211" y="330" type="curve" smooth="yes"/>
      <point x="211" y="465"/>
      <point x="152" y="632"/>
      <point x="58" y="724" type="curve"/>
      <point x="20" y="724" type="line"/>
      <point x="106" y="641"/>
      <point x="178" y="480"/>
      <point x="178" y="330" type="curve" smooth="yes"/>
      <point x="178" y="184"/>
      <point x="106" y="22"/>
      <point x="20" y="-64" type="curve"/>
    </contour>
  </outline>
</glyph>
<glyph name="seven.lc" format="2">
  <advance width="452"/>
  <outline>
    <contour>
      <point x="144" y="-188" type="line" smooth="yes"/>
      <point x="176" y="-188" type="line" smooth="yes"/>
      <point x="408" y="452" type="line" smooth="yes"/>
      <point x="408" y="470" type="line" smooth="yes"/>
      <point x="44" y="470" type="line" smooth="yes"/>
      <point x="44" y="438" type="line" smooth="yes"/>
      <point x="391" y="438" type="line" smooth="yes"/>
      <point x="377" y="453" type="line" smooth="yes"/>
    </contour>
  </outline>
</glyph>
<glyph name="two.dnom" format="2">
  <advance width="305"/>
  <outline>
    <contour>
      <point x="36" y="0" type="line"/>
      <point x="269" y="0" type="line"/>
      <point x="269" y="31" type="line"/>
      <point x="45" y="31" type="line"/>
      <point x="51" y="24" type="line"/>
      <point x="193" y="113"/>
      <point x="266" y="175"/>
      <point x="266" y="255" type="curve" smooth="yes"/>
      <point x="266" y="321"/>
      <point x="217" y="368"/>
      <point x="143" y="368" type="curve" smooth="yes"/>
      <point x="104" y="368"/>
      <point x="68" y="357"/>
      <point x="41" y="338" type="curve"/>
      <point x="41" y="304" type="line"/>
      <point x="71" y="327"/>
      <point x="108" y="339"/>
      <point x="143" y="339" type="curve" smooth="yes"/>
      <point x="199" y="339"/>
      <point x="235" y="304"/>
      <point x="235" y="254" type="curve" smooth="yes"/>
      <point x="235" y="184"/>
      <point x="168" y="130"/>
      <point x="36" y="46" type="curve"/>
    </contour>
  </outline>
</glyph>
<glyph name="two.lc" format="2">
  <advance width="419"/>
  <outline>
    <contour>
      <point x="52" y="0" type="line"/>
      <point x="367" y="0" type="line"/>
      <point x="367" y="32" type="line"/>
      <point x="64" y="32" type="line"/>
      <point x="71" y="18" type="line"/>
      <point x="261" y="104"/>
      <point x="358" y="215"/>
      <point x="358" y="336" type="curve" smooth="yes"/>
      <point x="358" y="424"/>
      <point x="303" y="487"/>
      <point x="195" y="487" type="curve" smooth="yes"/>
      <point x="144" y="487"/>
      <point x="96" y="472"/>
      <point x="58" y="447" type="curve"/>
      <point x="58" y="412" type="line"/>
      <point x="99" y="442"/>
      <point x="149" y="457"/>
      <point x="195" y="457" type="curve" smooth="yes"/>
      <point x="268" y="457"/>
      <point x="325" y="414"/>
      <point x="325" y="335" type="curve" smooth="yes"/>
      <point x="325" y="208"/>
      <point x="211" y="120"/>
      <point x="52" y="39" type="curve"/>
    </contour>
  </outline>
</glyph>
<glyph name="zero.dnom" format="2">
  <advance width="392"/>
  <outline>
    <contour>
      <point x="196" y="-8" type="curve" smooth="yes"/>
      <point x="295" y="-8"/>
      <point x="352" y="65"/>
      <point x="352" y="182" type="curve" smooth="yes"/>
      <point x="352" y="296"/>
      <point x="295" y="368"/>
      <point x="196" y="368" type="curve" smooth="yes"/>
      <point x="97" y="368"/>
      <point x="40" y="296"/>
      <point x="40" y="180" type="curve" smooth="yes"/>
      <point x="40" y="64"/>
      <point x="97" y="-8"/>
    </contour>
    <contour>
      <point x="196" y="21" type="curve" smooth="yes"/>
      <point x="118" y="21"/>
      <point x="71" y="84"/>
      <point x="71" y="182" type="curve" smooth="yes"/>
      <point x="71" y="277"/>
      <point x="118" y="339"/>
      <point x="196" y="339" type="curve" smooth="yes"/>
      <point x="274" y="339"/>
      <point x="321" y="277"/>
      <point x="321" y="180" type="curve" smooth="yes"/>
      <point x="321" y="83"/>
      <point x="274" y="21"/>
    </contour>
  </outline>
</glyph>
<glyph name="zero.lc" format="2">
  <advance width="542"/>
  <outline>
    <contour>
      <point x="267" y="-12" type="curve" smooth="yes"/>
      <point x="404" y="-12"/>
      <point x="490" y="84"/>
      <point x="490" y="236" type="curve" smooth="yes"/>
      <point x="490" y="389"/>
      <point x="404" y="485"/>
      <point x="267" y="485" type="curve" smooth="yes"/>
      <point x="135" y="485"/>
      <point x="52" y="388"/>
      <point x="52" y="235" type="curve" smooth="yes"/>
      <point x="52" y="84"/>
      <point x="135" y="-12"/>
    </contour>
    <contour>
      <point x="267" y="16" type="curve" smooth="yes"/>
      <point x="155" y="16"/>
      <point x="84" y="97"/>
      <point x="84" y="236" type="curve" smooth="yes"/>
      <point x="84" y="376"/>
      <point x="155" y="457"/>
      <point x="267" y="457" type="curve" smooth="yes"/>
      <point x="384" y="457"/>
      <point x="458" y="375"/>
      <point x="458" y="235" type="curve" smooth="yes"/>
      <point x="458" y="97"/>
      <point x="384" y="16"/>
    </contour>
  </outline>
</glyph>
<glyph name="zero.sc_salt_slash" format="2">
  <advance width="478"/>
  <outline>
    <contour>
      <point x="239" y="-8" type="curve" smooth="yes"/>
      <point x="368" y="-8"/>
      <point x="438" y="107"/>
      <point x="438" y="264" type="curve" smooth="yes"/>
      <point x="438" y="421"/>
      <point x="368" y="530"/>
      <point x="239" y="530" type="curve" smooth="yes"/>
      <point x="110" y="530"/>
      <point x="40" y="420"/>
      <point x="40" y="261" type="curve" smooth="yes"/>
      <point x="40" y="102"/>
      <point x="110" y="-8"/>
    </contour>
    <contour>
      <point x="72" y="264" type="curve" smooth="yes"/>
      <point x="72" y="419"/>
      <point x="143" y="502"/>
      <point x="239" y="502" type="curve" smooth="yes"/>
      <point x="267" y="502"/>
      <point x="294" y="495"/>
      <point x="316" y="480" type="curve"/>
      <point x="140" y="60" type="line"/>
      <point x="98" y="101"/>
      <point x="72" y="170"/>
    </contour>
    <contour>
      <point x="239" y="20" type="curve" smooth="yes"/>
      <point x="211" y="20"/>
      <point x="184" y="28"/>
      <point x="162" y="43" type="curve"/>
      <point x="339" y="463" type="line"/>
      <point x="380" y="424"/>
      <point x="406" y="356"/>
      <point x="406" y="261" type="curve" smooth="yes"/>
      <point x="406" y="104"/>
      <point x="335" y="20"/>
    </contour>
  </outline>
</glyph>
